<?xml version="1.0" encoding="UTF-8"?>
<!DOCTYPE svg PUBLIC "-//W3C//DTD SVG 1.1//EN" "http://www.w3.org/Graphics/SVG/1.1/DTD/svg11.dtd">
<!-- Creator: CorelDRAW (Evaluation Version) -->
<svg xmlns="http://www.w3.org/2000/svg" xml:space="preserve" width="128.957mm" height="128.957mm" version="1.1" style="shape-rendering:geometricPrecision; text-rendering:geometricPrecision; image-rendering:optimizeQuality; fill-rule:evenodd; clip-rule:evenodd"
viewBox="0 0 13158.05 13158.05"
 xmlns:xlink="http://www.w3.org/1999/xlink"
 xmlns:xodm="http://www.corel.com/coreldraw/odm/2003">
 <defs>
  <style type="text/css">
   <![CDATA[
    .fil0 {fill:none}
    .fil1 {fill:#A078B5;fill-rule:nonzero}
   ]]>
  </style>
 </defs>
 <g id="Layer_x0020_1">
  <metadata id="CorelCorpID_0Corel-Layer"/>
  <rect class="fil0" width="13158.05" height="13158.05"/>
  <path class="fil1" d="M8305.17 4613.17l0 108.29c-122.17,24.99 -250.82,76.82 -386.87,154.57 -134.21,76.81 -275.82,201.76 -422.97,372.99l-1041.24 1245.79 318.39 -461.85 1323.53 2062.11c54.61,84.23 110.14,151.8 168.45,202.7 58.31,51.82 135.12,97.18 230.45,136.05l0 111.06c-129.57,-7.41 -273.03,-12.03 -431.3,-13.89 -157.34,-1.85 -302.65,-2.78 -435,-2.78 -75.89,0 -170.31,0.93 -282.29,2.78 -111.99,1.86 -253.61,6.48 -422.97,13.89l0 -111.06c154.56,-7.41 247.12,-28.69 276.74,-62.93 29.61,-35.17 15.73,-97.19 -40.73,-186.97l-807.07 -1305.01c-52.75,-86.08 -99.03,-149.94 -139.76,-192.52 -39.79,-43.5 -81.44,-74.04 -123.09,-89.77 -40.72,-15.73 -92.56,-25.92 -155.49,-29.62l0 -113.84c160.11,-6.48 303.57,-51.83 432.23,-136.06 128.64,-84.22 268.4,-212.87 419.27,-385.95l326.71 -397.06c141.61,-166.6 224.91,-309.13 248.05,-428.53 23.14,-120.32 -0.92,-213.79 -72.19,-279.51 -71.27,-65.71 -180.48,-100.88 -326.71,-104.59l0 -108.29c89.77,3.7 175.85,6.48 260.08,8.34 84.22,1.85 172.15,3.69 261.93,5.55 90.7,1.85 188.8,2.78 295.25,2.78 110.14,0 209.17,-1.85 296.18,-5.55 86.08,-3.7 162.89,-7.41 230.45,-11.11zm-1926.98 0l0 111.06c-116.62,3.7 -205.47,17.59 -265.63,41.65 -60.17,24.07 -100.89,68.5 -120.33,133.28 -20.36,65.72 -30.54,166.6 -30.54,302.65l0 2754.42c0,133.28 10.18,233.24 31.47,299.88 21.28,66.64 62.02,111.06 121.25,134.21 59.23,21.28 147.16,36.09 263.78,43.5l0 111.06c-98.11,-7.41 -223.06,-12.03 -375.77,-13.89 -151.79,-1.85 -305.43,-2.78 -461.85,-2.78 -178.62,0 -345.22,0.93 -501.64,2.78 -155.49,1.86 -280.44,6.48 -375.77,13.89l0 -111.06c119.4,-7.41 209.17,-22.21 267.48,-43.5 59.23,-23.14 99.03,-67.57 119.4,-134.21 19.43,-66.64 29.61,-166.6 29.61,-299.88l0 -2754.42c0,-136.05 -10.18,-236.93 -29.61,-302.65 -20.37,-64.78 -61.09,-109.21 -121.25,-133.28 -60.16,-24.06 -149.01,-37.95 -265.64,-41.65l0 -111.06c95.33,3.7 220.28,7.41 375.77,11.11 156.42,3.7 323.02,5.55 501.64,5.55 156.42,0 310.06,-1.85 461.85,-5.55 152.71,-3.7 277.67,-7.41 375.77,-11.11z"/>
 </g>
</svg>
